<svg width="388" height="388" viewBox="0 0 388 388" fill="none" xmlns="http://www.w3.org/2000/svg">
<mask id="path-1-inside-1" fill="white">
<path d="M220.87 124.267C207.086 118.945 192.033 117.829 177.615 121.062C163.197 124.295 150.062 131.731 139.87 142.429C129.678 153.127 122.887 166.607 120.356 181.165C117.825 195.722 119.668 210.703 125.651 224.214C131.635 237.724 141.49 249.157 153.971 257.066C166.452 264.975 180.998 269.005 195.769 268.647C210.541 268.29 224.875 263.559 236.958 255.055C249.041 246.551 258.332 234.655 263.654 220.871C270.767 202.385 270.258 181.832 262.237 163.722C254.216 145.612 239.339 131.422 220.87 124.267ZM171.19 252.933C159.527 248.429 149.461 240.568 142.265 230.344C135.069 220.119 131.067 207.991 130.764 195.492C130.461 182.993 133.872 170.685 140.564 160.124C147.256 149.563 156.93 141.224 168.362 136.161C179.794 131.098 192.47 129.539 204.788 131.68C217.106 133.821 228.512 139.568 237.564 148.192C246.617 156.816 252.908 167.93 255.644 180.13C258.379 192.33 257.435 205.067 252.932 216.731C246.877 232.359 234.871 244.947 219.547 251.734C204.223 258.52 186.832 258.952 171.19 252.933ZM319.982 280.823L309.768 244.635C311.194 241.235 312.829 236.788 313.728 234.291L345.644 214.334C346.384 213.872 347.009 213.247 347.471 212.507C347.933 211.767 348.221 210.931 348.313 210.063C349.703 196.86 349.385 183.532 347.365 170.41C347.232 169.547 346.904 168.726 346.406 168.009C345.909 167.291 345.254 166.697 344.492 166.27L311.71 147.919C310.351 144.45 308.842 141.042 307.185 137.704L315.624 101.111C315.82 100.261 315.82 99.3774 315.623 98.5272C315.427 97.677 315.04 96.8827 314.491 96.2045C306.137 85.8847 296.488 76.6854 285.781 68.8344C285.076 68.3182 284.264 67.9693 283.405 67.8142C282.545 67.6591 281.662 67.7019 280.822 67.9394L244.667 78.1432C241.253 76.6505 237.775 75.3077 234.244 74.1186L214.335 42.2784C213.872 41.5386 213.247 40.9139 212.507 40.4515C211.767 39.9892 210.932 39.7014 210.064 39.6099C196.86 38.2188 183.532 38.5373 170.409 40.5573C169.546 40.6899 168.725 41.0175 168.007 41.5151C167.29 42.0127 166.695 42.6673 166.268 43.4292L147.919 76.2107C144.449 77.5698 141.04 79.0798 137.702 80.7364L101.111 72.2972C100.261 72.1014 99.3774 72.1017 98.5273 72.298C97.6772 72.4944 96.8828 72.8816 96.2045 73.4304C85.8845 81.7837 76.6852 91.4334 68.8344 102.141C68.3184 102.845 67.9696 103.657 67.8145 104.517C67.6594 105.376 67.7021 106.259 67.9394 107.099L78.1534 143.287C76.7282 146.687 75.093 151.134 74.1935 153.631L42.2778 173.588C41.538 174.051 40.9133 174.675 40.4509 175.415C39.9886 176.155 39.7008 176.991 39.6093 177.859C38.2187 191.062 38.5373 204.39 40.5572 217.512C40.69 218.375 41.0177 219.196 41.5154 219.914C42.0131 220.631 42.6677 221.225 43.4295 221.652L76.2122 240.002C77.5704 243.471 79.0795 246.88 80.7353 250.217L72.2987 286.809C72.1023 287.66 72.1023 288.544 72.2986 289.394C72.4948 290.245 72.8822 291.039 73.4313 291.717C81.7847 302.037 91.4343 311.237 102.141 319.088C102.846 319.604 103.658 319.953 104.517 320.108C105.376 320.263 106.26 320.22 107.1 319.983L143.255 309.779C146.662 311.269 150.152 312.616 153.678 313.803L173.587 345.644C174.05 346.384 174.674 347.008 175.414 347.471C176.154 347.933 176.99 348.221 177.858 348.312C191.062 349.703 204.39 349.385 217.512 347.365C218.375 347.232 219.197 346.904 219.914 346.406C220.631 345.909 221.226 345.254 221.652 344.492L240.02 311.681C243.431 310.284 247.73 308.297 250.131 307.167L286.81 315.623C287.66 315.819 288.544 315.819 289.394 315.623C290.245 315.427 291.039 315.039 291.718 314.49C302.038 306.137 311.237 296.487 319.088 285.78C319.604 285.076 319.953 284.263 320.108 283.404C320.263 282.545 320.22 281.662 319.983 280.822L319.982 280.823ZM286.628 303.788L250.767 295.52C249.497 295.226 248.165 295.373 246.989 295.937C246.901 295.98 238.306 300.097 233.999 301.699C232.722 302.175 231.655 303.09 230.99 304.279L213.007 336.403C202.672 337.788 192.216 338.037 181.827 337.147L162.316 305.942C161.594 304.787 160.484 303.926 159.185 303.514C154.722 302.094 150.349 300.406 146.091 298.458C144.851 297.89 143.45 297.782 142.138 298.153L106.706 308.152C98.4192 301.823 90.8502 294.607 84.1337 286.631L92.402 250.77C92.7086 249.442 92.533 248.047 91.9064 246.836C89.7537 242.677 87.8548 238.391 86.2201 234.002C85.7447 232.724 84.8307 231.658 83.6414 230.992L51.5179 213.009C50.1331 202.674 49.8835 192.219 50.7737 181.83L81.9791 162.317C83.0838 161.626 83.9209 160.58 84.3532 159.351C84.3852 159.26 87.5513 150.27 89.4645 146.093C90.0323 144.853 90.1406 143.452 89.77 142.139L79.7697 106.709C86.0985 98.4219 93.315 90.8517 101.291 84.1341L137.15 92.405C138.479 92.711 139.874 92.5344 141.085 91.9068C145.244 89.7548 149.53 87.8567 153.918 86.2231C155.196 85.7472 156.263 84.8328 156.929 83.6431L174.912 51.5194C185.247 50.1346 195.702 49.8852 206.092 50.7756L225.602 81.98C226.326 83.134 227.436 83.9944 228.734 84.4088C233.196 85.8282 237.569 87.5166 241.828 89.4647C243.068 90.0308 244.468 90.1389 245.781 89.7696L281.213 79.7703C289.499 86.0992 297.068 93.3158 303.785 101.291L295.517 137.152C295.21 138.481 295.386 139.875 296.012 141.086C298.165 145.246 300.064 149.532 301.699 153.92C302.174 155.198 303.088 156.265 304.277 156.931L336.401 174.914C337.786 185.248 338.035 195.703 337.145 206.092L305.94 225.605C304.835 226.296 303.998 227.342 303.565 228.571C303.533 228.662 300.367 237.652 298.455 241.83C297.888 243.07 297.779 244.471 298.15 245.784L308.15 281.213C301.821 289.501 294.604 297.071 286.628 303.788Z"/>
</mask>
<path d="M220.87 124.267C207.086 118.945 192.033 117.829 177.615 121.062C163.197 124.295 150.062 131.731 139.87 142.429C129.678 153.127 122.887 166.607 120.356 181.165C117.825 195.722 119.668 210.703 125.651 224.214C131.635 237.724 141.49 249.157 153.971 257.066C166.452 264.975 180.998 269.005 195.769 268.647C210.541 268.29 224.875 263.559 236.958 255.055C249.041 246.551 258.332 234.655 263.654 220.871C270.767 202.385 270.258 181.832 262.237 163.722C254.216 145.612 239.339 131.422 220.87 124.267ZM171.19 252.933C159.527 248.429 149.461 240.568 142.265 230.344C135.069 220.119 131.067 207.991 130.764 195.492C130.461 182.993 133.872 170.685 140.564 160.124C147.256 149.563 156.93 141.224 168.362 136.161C179.794 131.098 192.47 129.539 204.788 131.68C217.106 133.821 228.512 139.568 237.564 148.192C246.617 156.816 252.908 167.93 255.644 180.13C258.379 192.33 257.435 205.067 252.932 216.731C246.877 232.359 234.871 244.947 219.547 251.734C204.223 258.52 186.832 258.952 171.19 252.933ZM319.982 280.823L309.768 244.635C311.194 241.235 312.829 236.788 313.728 234.291L345.644 214.334C346.384 213.872 347.009 213.247 347.471 212.507C347.933 211.767 348.221 210.931 348.313 210.063C349.703 196.86 349.385 183.532 347.365 170.41C347.232 169.547 346.904 168.726 346.406 168.009C345.909 167.291 345.254 166.697 344.492 166.27L311.71 147.919C310.351 144.45 308.842 141.042 307.185 137.704L315.624 101.111C315.82 100.261 315.82 99.3774 315.623 98.5272C315.427 97.677 315.04 96.8827 314.491 96.2045C306.137 85.8847 296.488 76.6854 285.781 68.8344C285.076 68.3182 284.264 67.9693 283.405 67.8142C282.545 67.6591 281.662 67.7019 280.822 67.9394L244.667 78.1432C241.253 76.6505 237.775 75.3077 234.244 74.1186L214.335 42.2784C213.872 41.5386 213.247 40.9139 212.507 40.4515C211.767 39.9892 210.932 39.7014 210.064 39.6099C196.86 38.2188 183.532 38.5373 170.409 40.5573C169.546 40.6899 168.725 41.0175 168.007 41.5151C167.29 42.0127 166.695 42.6673 166.268 43.4292L147.919 76.2107C144.449 77.5698 141.04 79.0798 137.702 80.7364L101.111 72.2972C100.261 72.1014 99.3774 72.1017 98.5273 72.298C97.6772 72.4944 96.8828 72.8816 96.2045 73.4304C85.8845 81.7837 76.6852 91.4334 68.8344 102.141C68.3184 102.845 67.9696 103.657 67.8145 104.517C67.6594 105.376 67.7021 106.259 67.9394 107.099L78.1534 143.287C76.7282 146.687 75.093 151.134 74.1935 153.631L42.2778 173.588C41.538 174.051 40.9133 174.675 40.4509 175.415C39.9886 176.155 39.7008 176.991 39.6093 177.859C38.2187 191.062 38.5373 204.39 40.5572 217.512C40.69 218.375 41.0177 219.196 41.5154 219.914C42.0131 220.631 42.6677 221.225 43.4295 221.652L76.2122 240.002C77.5704 243.471 79.0795 246.88 80.7353 250.217L72.2987 286.809C72.1023 287.66 72.1023 288.544 72.2986 289.394C72.4948 290.245 72.8822 291.039 73.4313 291.717C81.7847 302.037 91.4343 311.237 102.141 319.088C102.846 319.604 103.658 319.953 104.517 320.108C105.376 320.263 106.26 320.22 107.1 319.983L143.255 309.779C146.662 311.269 150.152 312.616 153.678 313.803L173.587 345.644C174.05 346.384 174.674 347.008 175.414 347.471C176.154 347.933 176.99 348.221 177.858 348.312C191.062 349.703 204.39 349.385 217.512 347.365C218.375 347.232 219.197 346.904 219.914 346.406C220.631 345.909 221.226 345.254 221.652 344.492L240.02 311.681C243.431 310.284 247.73 308.297 250.131 307.167L286.81 315.623C287.66 315.819 288.544 315.819 289.394 315.623C290.245 315.427 291.039 315.039 291.718 314.49C302.038 306.137 311.237 296.487 319.088 285.78C319.604 285.076 319.953 284.263 320.108 283.404C320.263 282.545 320.22 281.662 319.983 280.822L319.982 280.823ZM286.628 303.788L250.767 295.52C249.497 295.226 248.165 295.373 246.989 295.937C246.901 295.98 238.306 300.097 233.999 301.699C232.722 302.175 231.655 303.09 230.99 304.279L213.007 336.403C202.672 337.788 192.216 338.037 181.827 337.147L162.316 305.942C161.594 304.787 160.484 303.926 159.185 303.514C154.722 302.094 150.349 300.406 146.091 298.458C144.851 297.89 143.45 297.782 142.138 298.153L106.706 308.152C98.4192 301.823 90.8502 294.607 84.1337 286.631L92.402 250.77C92.7086 249.442 92.533 248.047 91.9064 246.836C89.7537 242.677 87.8548 238.391 86.2201 234.002C85.7447 232.724 84.8307 231.658 83.6414 230.992L51.5179 213.009C50.1331 202.674 49.8835 192.219 50.7737 181.83L81.9791 162.317C83.0838 161.626 83.9209 160.58 84.3532 159.351C84.3852 159.26 87.5513 150.27 89.4645 146.093C90.0323 144.853 90.1406 143.452 89.77 142.139L79.7697 106.709C86.0985 98.4219 93.315 90.8517 101.291 84.1341L137.15 92.405C138.479 92.711 139.874 92.5344 141.085 91.9068C145.244 89.7548 149.53 87.8567 153.918 86.2231C155.196 85.7472 156.263 84.8328 156.929 83.6431L174.912 51.5194C185.247 50.1346 195.702 49.8852 206.092 50.7756L225.602 81.98C226.326 83.134 227.436 83.9944 228.734 84.4088C233.196 85.8282 237.569 87.5166 241.828 89.4647C243.068 90.0308 244.468 90.1389 245.781 89.7696L281.213 79.7703C289.499 86.0992 297.068 93.3158 303.785 101.291L295.517 137.152C295.21 138.481 295.386 139.875 296.012 141.086C298.165 145.246 300.064 149.532 301.699 153.92C302.174 155.198 303.088 156.265 304.277 156.931L336.401 174.914C337.786 185.248 338.035 195.703 337.145 206.092L305.94 225.605C304.835 226.296 303.998 227.342 303.565 228.571C303.533 228.662 300.367 237.652 298.455 241.83C297.888 243.07 297.779 244.471 298.15 245.784L308.15 281.213C301.821 289.501 294.604 297.071 286.628 303.788Z" fill="url(#paint0_linear)" stroke="#121212" stroke-width="6" mask="url(#path-1-inside-1)"/>
<defs>
<linearGradient id="paint0_linear" x1="189.218" y1="50.7177" x2="199.09" y2="338.048" gradientUnits="userSpaceOnUse">
<stop offset="0.119792" stop-color="#0F3551"/>
<stop offset="0.494792" stop-color="#2E7588"/>
<stop offset="1" stop-color="#5EBEBD"/>
</linearGradient>
</defs>
</svg>
